<svg xmlns="http://www.w3.org/2000/svg" width="1200" height="630" viewBox="0 0 1200 630"><rect width="1200" height="630" fill="#050505" /><g opacity=".13" stroke="#F2F2F0" fill="none"><path d="M0 315 H150 L180 290 L210 350 L250 220 L290 410 L340 315 H1200" stroke-width="2" /></g><g transform="translate(100,180)"><text x="0" y="130" fill="#F2F2F0" font-family="'Arial Narrow','Helvetica Neue',Arial,sans-serif" font-size="120" font-weight="700" letter-spacing="11">PHASE</text><text x="510" y="130" fill="#F2F2F0" font-family="'Arial Narrow','Helvetica Neue',Arial,sans-serif" font-size="120" font-weight="700" letter-spacing="11">N</text><g aria-label="PHASENOX eye glyph" transform="translate(45,0)">
      <defs><clipPath id="eyeClip1"><path d="M 583.3,92 Q 650,43.699999999999996 716.7,92 Q 650,140.3 583.3,92 Z" /></clipPath></defs><path d="M 583.3,92 Q 650,43.699999999999996 716.7,92 Q 650,140.3 583.3,92 Z" fill="none" stroke="#F2F2F0" stroke-width="5.52" stroke-linejoin="round" />
      <g clip-path="url(#eyeClip1)"><circle cx="650" cy="92" r="25.3" fill="none" stroke="#F2F2F0" stroke-width="5.06" />
      <circle cx="650" cy="92" r="8.74" fill="#F2F2F0" />
      <path d="M 618.43,125.01 L 681.57,58.99" stroke="#F2F2F0" stroke-width="5.98" stroke-linecap="round" />
    <path d="M 630.22,92 L 637.12,92 L 641.72,84.18 L 647.24,100.74 L 653.22,81.88 L 658.28,97.98 L 663.34,92 L 669.78,92" fill="none" stroke="#B5121B" stroke-width="2.53" stroke-linecap="round" stroke-linejoin="round" /></g></g><text x="800" y="130" fill="#F2F2F0" font-family="'Arial Narrow','Helvetica Neue',Arial,sans-serif" font-size="120" font-weight="700" letter-spacing="11">X</text><text x="3" y="195" fill="#8A8A86" font-family="'Arial Narrow','Helvetica Neue',Arial,sans-serif" font-size="22" letter-spacing="8">HEAR BEYOND THE NOISE</text></g></svg>